<?xml version="1.0" encoding="utf-8"?>
<!-- Generator: Adobe Illustrator 16.0.3, SVG Export Plug-In . SVG Version: 6.00 Build 0)  -->
<!DOCTYPE svg PUBLIC "-//W3C//DTD SVG 1.1//EN" "http://www.w3.org/Graphics/SVG/1.1/DTD/svg11.dtd">
<svg version="1.1" id="Ebene_1" xmlns="http://www.w3.org/2000/svg" xmlns:xlink="http://www.w3.org/1999/xlink" x="0px" y="0px"
	 width="100px" height="100px" viewBox="0 0 100 100" enable-background="new 0 0 100 100" xml:space="preserve">
<g>
	<path d="M0.479,49.881L49.059,2.242c0.417-0.367,0.903-0.551,1.45-0.551s1.006,0.184,1.374,0.551l47.639,47.639
		c0.417,0.421,0.563,0.758,0.433,1.021c-0.13,0.26-0.459,0.39-0.979,0.39H85.262V96.35c0,0.524-0.195,0.979-0.589,1.37
		c-0.391,0.394-0.85,0.589-1.37,0.589h-19.59c-0.523,0-0.979-0.195-1.369-0.589c-0.395-0.391-0.59-0.846-0.59-1.37V66.965H38.246
		V96.35c0,0.524-0.195,0.979-0.589,1.37c-0.391,0.394-0.85,0.589-1.37,0.589H16.698c-0.524,0-0.979-0.195-1.37-0.589
		c-0.394-0.391-0.589-0.846-0.589-1.37V51.293H1.026c-0.524,0-0.85-0.13-0.979-0.39C-0.084,50.639,0.058,50.302,0.479,49.881z"/>
</g>
</svg>
