<?xml version="1.0" encoding="utf-8"?>
<!-- Generator: Adobe Illustrator 16.0.3, SVG Export Plug-In . SVG Version: 6.00 Build 0)  -->
<!DOCTYPE svg PUBLIC "-//W3C//DTD SVG 1.1//EN" "http://www.w3.org/Graphics/SVG/1.1/DTD/svg11.dtd">
<svg version="1.1" id="Ebene_1" xmlns="http://www.w3.org/2000/svg" xmlns:xlink="http://www.w3.org/1999/xlink" x="0px" y="0px"
	 width="100px" height="100px" viewBox="0 0 100 100" enable-background="new 0 0 100 100" xml:space="preserve">
<g>
	<path d="M100,28.571c0,1.953-1.619,3.572-3.572,3.572H3.571C1.619,32.143,0,30.524,0,28.571V14.286
		c0-1.953,1.619-3.571,3.571-3.571h92.856c1.953,0,3.572,1.619,3.572,3.571V28.571z M100,57.143c0,1.953-1.619,3.572-3.572,3.572
		H3.571C1.619,60.715,0,59.096,0,57.143V42.857c0-1.952,1.619-3.571,3.571-3.571h92.856c1.953,0,3.572,1.619,3.572,3.571V57.143z
		 M100,85.715c0,1.951-1.619,3.57-3.572,3.57H3.571C1.619,89.285,0,87.666,0,85.715V71.429c0-1.952,1.619-3.571,3.571-3.571h92.856
		c1.953,0,3.572,1.619,3.572,3.571V85.715z M92.856,53.571v-7.143H35.714v7.143H92.856z M92.856,82.143V75H57.143v7.143H92.856z
		 M92.856,25v-7.143H71.429V25H92.856z"/>
</g>
</svg>
