<?xml version="1.0" encoding="utf-8"?>
<!-- Generator: Adobe Illustrator 16.0.3, SVG Export Plug-In . SVG Version: 6.00 Build 0)  -->
<!DOCTYPE svg PUBLIC "-//W3C//DTD SVG 1.1//EN" "http://www.w3.org/Graphics/SVG/1.1/DTD/svg11.dtd">
<svg version="1.1" id="Ebene_1" xmlns="http://www.w3.org/2000/svg" xmlns:xlink="http://www.w3.org/1999/xlink" x="0px" y="0px"
	 width="31px" height="35px" viewBox="0 0 31 35" enable-background="new 0 0 31 35" xml:space="preserve">
<g transform="translate(0 -1028.4)">
	<path fill="#E84C3D" d="M10,1033.4c-5.523,0-10,4.477-10,10c0,1.776,0.478,3.438,1.289,4.883c0.135,0.24,0.276,0.477,0.43,0.703
		L10,1063.4l8.281-14.414c0.127-0.188,0.236-0.389,0.352-0.586l0.078-0.117c0.812-1.445,1.289-3.106,1.289-4.883
		C20,1037.877,15.522,1033.4,10,1033.4z M10,1038.4c2.762,0,5,2.238,5,5s-2.238,5-5,5s-5-2.238-5-5S7.238,1038.4,10,1038.4z"/>
	<path fill="#C03A2B" d="M10,1037.15c-3.451,0-6.25,2.799-6.25,6.25s2.799,6.25,6.25,6.25c3.452,0,6.25-2.799,6.25-6.25
		S13.452,1037.15,10,1037.15z M10,1039.65c2.071,0,3.75,1.68,3.75,3.75s-1.679,3.75-3.75,3.75s-3.75-1.68-3.75-3.75
		S7.929,1039.65,10,1039.65z"/>
</g>
<g>
	<circle fill="#3177B2" cx="23" cy="8" r="8"/>
	<path fill="#FFFFFF" d="M21.746,13V9.283H18V6.717h3.746V3h2.497v3.717H28v2.566h-3.757V13H21.746z"/>
</g>
</svg>
