<?xml version="1.0" encoding="utf-8"?>
<!-- Generator: Adobe Illustrator 16.0.3, SVG Export Plug-In . SVG Version: 6.00 Build 0)  -->
<!DOCTYPE svg PUBLIC "-//W3C//DTD SVG 1.1//EN" "http://www.w3.org/Graphics/SVG/1.1/DTD/svg11.dtd">
<svg version="1.1" id="Ebene_1" xmlns="http://www.w3.org/2000/svg" xmlns:xlink="http://www.w3.org/1999/xlink" x="0px" y="0px"
	 width="100px" height="100px" viewBox="0 0 100 100" enable-background="new 0 0 100 100" xml:space="preserve">
<path d="M95.774,75.624V24.375c2.097-1.22,3.521-3.467,3.521-6.065c0-3.89-3.151-7.042-7.042-7.042
	c-1.949,0-3.711,0.791-4.986,2.069L56.769,5.203C55.957,2.212,53.25,0,50,0c-3.26,0-5.976,2.226-6.778,5.233l-30.378,8.24
	c-1.283-1.352-3.086-2.206-5.097-2.206c-3.89,0-7.042,3.152-7.042,7.042c0,2.6,1.425,4.845,3.521,6.065v51.249
	c-2.096,1.219-3.521,3.465-3.521,6.066c0,3.887,3.153,7.042,7.042,7.042c1.947,0,3.709-0.791,4.984-2.068l30.501,8.134
	C44.045,97.787,46.751,100,50,100c3.166,0,5.81-2.104,6.698-4.975l30.6-8.336c1.272,1.262,3.021,2.043,4.956,2.043
	c3.891,0,7.042-3.155,7.042-7.042C99.296,79.089,97.871,76.843,95.774,75.624z M45.039,12.036c0.786,0.781,1.767,1.348,2.849,1.69
	v9.167c-1.092,0.345-2.083,0.919-2.873,1.71l-23.352-6.228L45.039,12.036z M53.521,82.448V35.643
	c1.58-0.919,2.758-2.423,3.247-4.226l30.196-8.052L53.521,82.448z M54.986,24.604c-0.791-0.792-1.781-1.365-2.874-1.71v-9.167
	c1.093-0.346,2.083-0.919,2.872-1.71l23.603,6.294L54.986,24.604z M12.731,23.283l30.5,8.134c0.199,0.733,0.491,1.427,0.9,2.044
	L11.268,73.993V24.375C11.798,24.066,12.3,23.715,12.731,23.283z M13.615,77.806l32.864-40.531v49.617
	c-0.531,0.309-1.033,0.661-1.463,1.093l-30.5-8.135C14.316,79.118,14.025,78.424,13.615,77.806z M88.732,28.82v46.804
	c-1.592,0.925-2.775,2.441-3.26,4.265l-30.321,8.259L88.732,28.82z"/>
</svg>
