<?xml version="1.0" encoding="utf-8"?>
<!-- Generator: Adobe Illustrator 16.0.3, SVG Export Plug-In . SVG Version: 6.00 Build 0)  -->
<!DOCTYPE svg PUBLIC "-//W3C//DTD SVG 1.1//EN" "http://www.w3.org/Graphics/SVG/1.1/DTD/svg11.dtd">
<svg version="1.1" id="Ebene_2" xmlns="http://www.w3.org/2000/svg" xmlns:xlink="http://www.w3.org/1999/xlink" x="0px" y="0px"
	 width="100px" height="100px" viewBox="0 0 100 100" enable-background="new 0 0 100 100" xml:space="preserve">
<path d="M100,69.23c0,2.821-1.56,5.406-4.03,6.729L53.666,99.036C52.523,99.703,51.261,100,50,100c-1.261,0-2.523-0.297-3.667-0.964
	L4.025,75.959C1.563,74.637,0,72.052,0,69.23V23.077c0-3.242,2.042-6.133,5.047-7.211L47.354,0.482C48.195,0.184,49.098,0,50,0
	s1.806,0.184,2.646,0.482l42.308,15.384c3.006,1.078,5.047,3.969,5.047,7.211V69.23z M91.949,22.955L50,7.692L8.052,22.955
	L50,38.225L91.949,22.955z M92.308,69.23V31.006L53.847,45.015v45.19L92.308,69.23z"/>
</svg>
