<?xml version="1.0" encoding="utf-8"?>
<!-- Generator: Adobe Illustrator 16.0.3, SVG Export Plug-In . SVG Version: 6.00 Build 0)  -->
<!DOCTYPE svg PUBLIC "-//W3C//DTD SVG 1.1//EN" "http://www.w3.org/Graphics/SVG/1.1/DTD/svg11.dtd">
<svg version="1.1" id="Ebene_2" xmlns="http://www.w3.org/2000/svg" xmlns:xlink="http://www.w3.org/1999/xlink" x="0px" y="0px"
	 width="100px" height="100px" viewBox="0 0 100 100" enable-background="new 0 0 100 100" xml:space="preserve">
<path fill="#FFFFFF" d="M88.203,67.078c-1.675,0-3.199,0.63-4.362,1.661L57,53.878c0.521-1.449,0.819-3.004,0.819-4.632
	c0-3.104-1.044-5.958-2.782-8.258l21.656-22.643c1.48,0.888,3.21,1.408,5.063,1.408c5.455,0,9.877-4.421,9.877-9.876
	C91.633,4.422,87.211,0,81.756,0s-9.877,4.422-9.877,9.876c0,2.011,0.604,3.879,1.637,5.44L51.872,37.946
	c-2.209-1.522-4.884-2.417-7.771-2.417c-1.568,0-3.069,0.276-4.473,0.761L26.405,11.691c1.063-1.169,1.716-2.717,1.716-4.421
	c0-3.636-2.948-6.584-6.584-6.584c-3.636,0-6.584,2.948-6.584,6.584c0,3.636,2.948,6.584,6.584,6.584
	c0.342,0,0.675-0.034,1.003-0.084l13.224,24.6c-3.265,2.507-5.379,6.439-5.379,10.875c0,1.559,0.272,3.051,0.751,4.448L16.228,61.67
	c-1.17-1.067-2.722-1.725-4.431-1.725c-3.636,0-6.584,2.948-6.584,6.584c0,3.637,2.948,6.585,6.584,6.585s6.584-2.948,6.584-6.585
	c0-0.337-0.033-0.665-0.083-0.989l14.912-7.979c2.507,3.277,6.446,5.401,10.891,5.401c0.418,0,0.828-0.035,1.237-0.073l4.738,18.458
	c-3.18,1.641-5.358,4.951-5.358,8.775c0,5.455,4.422,9.877,9.877,9.877c5.454,0,9.876-4.422,9.876-9.877
	c0-5.454-4.422-9.876-9.876-9.876c-0.091,0-0.177,0.011-0.267,0.013l-4.741-18.466c2.08-0.914,3.898-2.312,5.287-4.074l26.84,14.859
	c-0.059,0.354-0.096,0.714-0.096,1.083c0,3.637,2.947,6.585,6.584,6.585c3.636,0,6.584-2.948,6.584-6.585
	C94.787,70.026,91.839,67.078,88.203,67.078z"/>
</svg>
