<?xml version="1.0" encoding="utf-8"?>
<!-- Generator: Adobe Illustrator 16.0.3, SVG Export Plug-In . SVG Version: 6.00 Build 0)  -->
<!DOCTYPE svg PUBLIC "-//W3C//DTD SVG 1.1//EN" "http://www.w3.org/Graphics/SVG/1.1/DTD/svg11.dtd">
<svg version="1.1" id="Ebene_1" xmlns="http://www.w3.org/2000/svg" xmlns:xlink="http://www.w3.org/1999/xlink" x="0px" y="0px"
	 width="100px" height="100px" viewBox="0 0 100 100" enable-background="new 0 0 100 100" xml:space="preserve">
<g>
	<path d="M92.857,14.286v7.143c0,7.867-19.195,14.286-42.857,14.286c-23.662,0-42.857-6.419-42.857-14.286v-7.143
		C7.143,6.419,26.338,0,50,0C73.662,0,92.857,6.419,92.857,14.286z M92.857,33.371v9.486c0,7.867-19.195,14.286-42.857,14.286
		c-23.662,0-42.857-6.418-42.857-14.286v-9.486c9.209,6.472,26.062,9.486,42.857,9.486C66.795,42.857,83.648,39.843,92.857,33.371z
		 M92.857,54.8v9.485c0,7.867-19.195,14.286-42.857,14.286c-23.662,0-42.857-6.419-42.857-14.286V54.8
		c9.209,6.472,26.062,9.485,42.857,9.485C66.795,64.285,83.648,61.271,92.857,54.8z M92.857,76.229v9.486
		C92.857,93.581,73.662,100,50,100c-23.662,0-42.857-6.419-42.857-14.285v-9.486C16.352,82.7,33.205,85.715,50,85.715
		C66.795,85.715,83.648,82.7,92.857,76.229z"/>
</g>
</svg>
