<?xml version="1.0" encoding="utf-8"?>
<!-- Generator: Adobe Illustrator 16.0.3, SVG Export Plug-In . SVG Version: 6.00 Build 0)  -->
<!DOCTYPE svg PUBLIC "-//W3C//DTD SVG 1.1//EN" "http://www.w3.org/Graphics/SVG/1.1/DTD/svg11.dtd">
<svg version="1.1" id="Ebene_3" xmlns="http://www.w3.org/2000/svg" xmlns:xlink="http://www.w3.org/1999/xlink" x="0px" y="0px"
	 width="100px" height="100px" viewBox="0 0 100 100" enable-background="new 0 0 100 100" xml:space="preserve">
<g>
	<rect x="4" y="33" width="44" height="26"/>
	<rect x="52" width="44" height="28"/>
	<rect x="4" width="44" height="28"/>
	<rect x="4" y="64" width="44" height="28"/>
	<path d="M77,50c7.411,0,14.122,2.986,19,7.818V33H52v26h4.878C61.821,53.478,69.002,50,77,50z"/>
	<path d="M99.129,72.655l-5.477-0.838c-0.302-0.985-0.722-1.973-1.23-2.935c1.02-1.406,2.126-2.723,3.147-4.105
		c0.146-0.208,0.236-0.417,0.236-0.683c0-0.24-0.061-0.481-0.209-0.661c-1.258-1.766-3.354-3.622-4.94-5.089
		c-0.208-0.184-0.481-0.302-0.75-0.302c-0.271,0-0.54,0.094-0.716,0.27l-4.256,3.206c-0.865-0.449-1.768-0.809-2.695-1.108
		l-0.837-5.512C81.341,54.388,80.863,54,80.324,54h-6.649c-0.539,0-0.96,0.355-1.078,0.84c-0.48,1.798-0.659,3.738-0.869,5.57
		c-0.928,0.3-1.856,0.688-2.725,1.141l-4.133-3.206c-0.241-0.184-0.51-0.302-0.779-0.302c-1.017,0-5.06,4.37-5.782,5.362
		c-0.145,0.208-0.267,0.419-0.267,0.689c0,0.266,0.122,0.507,0.299,0.715c1.108,1.351,2.187,2.699,3.205,4.137
		c-0.477,0.898-0.869,1.793-1.167,2.753l-5.571,0.84C54.359,72.63,54,73.168,54,73.617v6.649c0,0.507,0.359,0.987,0.866,1.078
		l5.48,0.809c0.302,1.015,0.723,2.002,1.231,2.964c-1.021,1.406-2.129,2.722-3.147,4.105c-0.15,0.208-0.239,0.417-0.239,0.683
		c0,0.24,0.063,0.481,0.211,0.689c1.258,1.737,3.353,3.594,4.941,5.035c0.211,0.209,0.48,0.327,0.747,0.327
		c0.27,0,0.538-0.094,0.748-0.27l4.224-3.206c0.868,0.449,1.77,0.809,2.694,1.108l0.84,5.512c0.06,0.511,0.539,0.898,1.078,0.898
		h6.649c0.539,0,0.956-0.359,1.078-0.84c0.48-1.798,0.656-3.738,0.867-5.57c0.929-0.3,1.856-0.688,2.727-1.141l4.132,3.238
		c0.238,0.151,0.508,0.27,0.778,0.27c1.019,0,5.062-4.398,5.781-5.362c0.18-0.208,0.269-0.419,0.269-0.689
		c0-0.266-0.12-0.538-0.3-0.745c-1.108-1.351-2.187-2.669-3.203-4.136c0.478-0.869,0.837-1.764,1.168-2.724l5.538-0.84
		C99.637,81.37,100,80.832,100,80.383v-6.649C100,73.227,99.637,72.746,99.129,72.655z M77,84.668c-4.223,0-7.669-3.445-7.669-7.668
		s3.446-7.668,7.669-7.668c4.222,0,7.668,3.445,7.668,7.668S81.222,84.668,77,84.668z"/>
</g>
</svg>
