<?xml version="1.0" encoding="utf-8"?>
<!-- Generator: Adobe Illustrator 16.0.3, SVG Export Plug-In . SVG Version: 6.00 Build 0)  -->
<!DOCTYPE svg PUBLIC "-//W3C//DTD SVG 1.1//EN" "http://www.w3.org/Graphics/SVG/1.1/DTD/svg11.dtd">
<svg version="1.1" id="Ebene_2" xmlns="http://www.w3.org/2000/svg" xmlns:xlink="http://www.w3.org/1999/xlink" x="0px" y="0px"
	 width="100px" height="100px" viewBox="0 0 100 100" enable-background="new 0 0 100 100" xml:space="preserve">
<path d="M8.348,4.17h83.307c2.291,0,4.246,0.829,5.902,2.485C99.172,8.271,100,10.225,100,12.517v50.001
	c0,2.295-0.828,4.252-2.443,5.861c-1.656,1.658-3.611,2.5-5.902,2.5h-49.66L16.653,95.83V70.879H8.348
	c-2.292,0-4.246-0.842-5.903-2.5C0.829,66.77,0,64.813,0,62.518V12.517c0-2.292,0.828-4.246,2.444-5.861
	C4.102,4.999,6.055,4.17,8.348,4.17z"/>
</svg>
