<?xml version="1.0" encoding="utf-8"?>
<!-- Generator: Adobe Illustrator 16.0.3, SVG Export Plug-In . SVG Version: 6.00 Build 0)  -->
<!DOCTYPE svg PUBLIC "-//W3C//DTD SVG 1.1//EN" "http://www.w3.org/Graphics/SVG/1.1/DTD/svg11.dtd">
<svg version="1.1" id="Ebene_1" xmlns="http://www.w3.org/2000/svg" xmlns:xlink="http://www.w3.org/1999/xlink" x="0px" y="0px"
	 width="100px" height="100px" viewBox="0 0 100 100" enable-background="new 0 0 100 100" xml:space="preserve">
<g>
	<path d="M100,57.355c0,0.979-0.783,2.15-1.822,2.345l-12.045,1.822c-0.716,2.083-1.499,4.038-2.538,5.927
		c2.211,3.189,4.556,6.051,6.966,8.984c0.39,0.455,0.65,1.039,0.65,1.627c0,0.584-0.194,1.04-0.588,1.495
		c-1.562,2.083-10.351,11.655-12.563,11.655c-0.588,0-1.172-0.261-1.693-0.588l-8.984-7.028c-1.889,0.978-3.905,1.822-5.927,2.472
		c-0.456,3.973-0.845,8.206-1.884,12.111C59.311,99.217,58.4,100,57.228,100H42.772c-1.172,0-2.211-0.845-2.344-1.955l-1.822-11.979
		c-2.017-0.649-3.972-1.433-5.856-2.405l-9.183,6.962c-0.456,0.394-1.04,0.588-1.628,0.588c-0.583,0-1.172-0.261-1.627-0.717
		c-3.45-3.122-8.006-7.161-10.74-10.938c-0.327-0.455-0.456-0.973-0.456-1.495c0-0.588,0.195-1.044,0.518-1.499
		c2.216-2.995,4.622-5.856,6.838-8.917c-1.106-2.084-2.017-4.233-2.672-6.445l-11.912-1.76C0.783,59.244,0,58.205,0,57.095V42.644
		c0-0.978,0.783-2.149,1.756-2.344l12.111-1.822c0.65-2.083,1.5-4.039,2.539-5.989c-2.211-3.127-4.556-6.056-6.967-8.988
		c-0.389-0.456-0.65-0.973-0.65-1.562c0-0.583,0.261-1.039,0.588-1.495c1.561-2.15,10.35-11.655,12.562-11.655
		c0.588,0,1.172,0.261,1.694,0.65l8.983,6.967c1.889-0.978,3.906-1.822,5.927-2.473C39,9.961,39.389,5.728,40.428,1.822
		C40.689,0.783,41.6,0,42.772,0h14.455c1.173,0,2.212,0.845,2.345,1.955l1.822,11.978c2.017,0.65,3.972,1.433,5.855,2.406
		l9.25-6.962c0.389-0.394,0.973-0.588,1.561-0.588c0.584,0,1.173,0.261,1.628,0.65c3.45,3.189,8.006,7.228,10.739,11.067
		c0.328,0.394,0.456,0.911,0.456,1.433c0,0.588-0.194,1.044-0.518,1.5c-2.216,2.995-4.622,5.856-6.838,8.917
		c1.105,2.083,2.017,4.233,2.671,6.383l11.912,1.822c1.105,0.194,1.889,1.234,1.889,2.344V57.355z M50,33.333
		c-9.178,0-16.667,7.488-16.667,16.667c0,9.178,7.488,16.666,16.667,16.666c9.178,0,16.666-7.488,16.666-16.666
		C66.666,40.822,59.178,33.333,50,33.333z"/>
</g>
</svg>
