<?xml version="1.0" encoding="utf-8"?>
<!-- Generator: Adobe Illustrator 16.0.3, SVG Export Plug-In . SVG Version: 6.00 Build 0)  -->
<!DOCTYPE svg PUBLIC "-//W3C//DTD SVG 1.1//EN" "http://www.w3.org/Graphics/SVG/1.1/DTD/svg11.dtd">
<svg version="1.1" id="Ebene_2" xmlns="http://www.w3.org/2000/svg" xmlns:xlink="http://www.w3.org/1999/xlink" x="0px" y="0px"
	 width="100px" height="100px" viewBox="0 0 100 100" enable-background="new 0 0 100 100" xml:space="preserve">
<path d="M78.5,13C71.607,13,66,18.607,66,25.5c0,5.47,3.536,10.118,8.438,11.81c-0.627,9.039-8.716,11.71-21.622,15.189
	c-6.513,1.756-13.876,3.743-19.316,7.709V25.332C38.435,23.659,42,18.993,42,13.5C42,6.607,36.393,1,29.5,1S17,6.607,17,13.5
	c0,5.493,3.565,10.159,8.5,11.832v49.336C20.565,76.342,17,81.008,17,86.5C17,93.393,22.607,99,29.5,99S42,93.393,42,86.5
	c0-5.462-3.528-10.104-8.42-11.802c0.807-8.491,8.753-11.088,21.318-14.475c11.999-3.234,26.855-7.247,27.567-22.879
	C87.418,35.682,91,31.005,91,25.5C91,18.607,85.393,13,78.5,13z M25,13.5c0-2.481,2.019-4.5,4.5-4.5s4.5,2.019,4.5,4.5
	S31.981,18,29.5,18S25,15.981,25,13.5z M29.5,91c-2.481,0-4.5-2.019-4.5-4.5s2.019-4.5,4.5-4.5s4.5,2.019,4.5,4.5S31.981,91,29.5,91
	z M78.5,30c-2.481,0-4.5-2.019-4.5-4.5s2.019-4.5,4.5-4.5s4.5,2.019,4.5,4.5S80.981,30,78.5,30z"/>
</svg>
