<?xml version="1.0" encoding="utf-8"?>
<!-- Generator: Adobe Illustrator 16.0.3, SVG Export Plug-In . SVG Version: 6.00 Build 0)  -->
<!DOCTYPE svg PUBLIC "-//W3C//DTD SVG 1.1//EN" "http://www.w3.org/Graphics/SVG/1.1/DTD/svg11.dtd">
<svg version="1.1" id="Ebene_2" xmlns="http://www.w3.org/2000/svg" xmlns:xlink="http://www.w3.org/1999/xlink" x="0px" y="0px"
	 width="100px" height="100px" viewBox="0 0 100 100" enable-background="new 0 0 100 100" xml:space="preserve">
<path d="M50,100C22.395,100,0,77.605,0,50C0,22.395,22.395,0,50,0c27.605,0,50,22.395,50,50C100,77.605,77.605,100,50,100z
	 M51.301,16.667c-10.612,0-18.551,4.556-24.151,13.867c-0.588,0.911-0.328,2.083,0.517,2.734l8.594,6.511
	c0.328,0.261,0.783,0.389,1.239,0.389c0.583,0,1.239-0.256,1.628-0.778c3.061-3.906,4.361-5.078,5.6-5.989
	c1.106-0.783,3.255-1.566,5.6-1.566c4.167,0,8.006,2.672,8.006,5.539c0,3.383-1.756,5.078-5.729,6.9
	c-4.624,2.083-10.939,7.484-10.939,13.8v2.344c0,1.173,0.911,2.084,2.083,2.084h12.5c1.172,0,2.084-0.911,2.084-2.084
	c0-1.499,1.89-4.688,4.949-6.443C68.229,51.172,75,47.395,75,37.5C75,25.583,62.5,16.667,51.301,16.667z M58.334,68.75
	c0-1.172-0.912-2.084-2.084-2.084h-12.5c-1.172,0-2.083,0.912-2.083,2.084v12.5c0,1.172,0.911,2.084,2.083,2.084h12.5
	c1.172,0,2.084-0.912,2.084-2.084V68.75z"/>
</svg>
