<?xml version="1.0" encoding="utf-8"?>
<!-- Generator: Adobe Illustrator 16.0.3, SVG Export Plug-In . SVG Version: 6.00 Build 0)  -->
<!DOCTYPE svg PUBLIC "-//W3C//DTD SVG 1.1//EN" "http://www.w3.org/Graphics/SVG/1.1/DTD/svg11.dtd">
<svg version="1.1" id="Ebene_2" xmlns="http://www.w3.org/2000/svg" xmlns:xlink="http://www.w3.org/1999/xlink" x="0px" y="0px"
	 width="100px" height="100px" viewBox="0 0 100 100" enable-background="new 0 0 100 100" xml:space="preserve">
<path d="M38.775,90.816H18.367C8.228,90.816,0,82.588,0,72.449V27.551C0,17.412,8.228,9.184,18.367,9.184h20.408
	c1.083,0,2.041,0.958,2.041,2.041c0,1.785,0.828,6.123-2.041,6.123H18.367c-5.611,0-10.204,4.593-10.204,10.204v44.898
	c0,5.611,4.593,10.203,10.204,10.203h18.367c1.595,0,4.082-0.32,4.082,2.041C40.816,86.479,41.644,90.816,38.775,90.816z
	 M98.786,52.868L64.093,87.563c-0.763,0.767-1.785,1.213-2.868,1.213c-2.232,0-4.082-1.85-4.082-4.082V66.326H28.571
	c-2.231,0-4.082-1.85-4.082-4.081v-24.49c0-2.231,1.85-4.082,4.082-4.082h28.571V15.306c0-2.231,1.85-4.082,4.082-4.082
	c1.083,0,2.105,0.446,2.868,1.213l34.693,34.694C99.554,47.894,100,48.917,100,50S99.554,52.105,98.786,52.868z"/>
</svg>
