<?xml version="1.0" encoding="utf-8"?>
<!-- Generator: Adobe Illustrator 16.0.3, SVG Export Plug-In . SVG Version: 6.00 Build 0)  -->
<!DOCTYPE svg PUBLIC "-//W3C//DTD SVG 1.1//EN" "http://www.w3.org/Graphics/SVG/1.1/DTD/svg11.dtd">
<svg version="1.1" id="Ebene_2" xmlns="http://www.w3.org/2000/svg" xmlns:xlink="http://www.w3.org/1999/xlink" x="0px" y="0px"
	 width="100px" height="100px" viewBox="0 0 100 100" enable-background="new 0 0 100 100" xml:space="preserve">
<path d="M88.83,66.641c-0.349-0.151-0.739-0.292-1.192-0.453c-1.716-0.612-4.576-1.634-6.683-4.051
	c-0.015-0.161-0.027-0.398-0.04-0.602l-0.006-0.104c-0.057-0.998,0.004-3.229,0.102-4.135c0.2-0.195,0.458-0.456,0.729-0.813
	c1.148-1.509,1.715-3.523,2.171-5.14l0.133-0.467c0.072-0.252,0.143-0.338,0.549-0.763c0.78-0.816,2.087-2.184,2.179-5.089
	c0.074-2.357-0.396-3.564-0.884-4.598c-0.181-0.387-0.181-0.387-0.177-0.674c0.002-0.25,0.008-0.498,0.013-0.757
	c0.058-2.704,0.146-6.789-2.444-10.5c-2.178-3.127-5.085-4.223-7.055-4.598c-0.151-0.493-0.425-1.029-0.91-1.527
	c-1.184-1.214-2.833-1.354-3.971-1.354h-0.001c-1.811,0-3.529,0.358-5.116,0.954c-0.177-0.293-0.366-0.585-0.568-0.876
	c-2.664-3.828-6.204-5.23-8.671-5.735c-0.21-0.594-0.556-1.228-1.128-1.814c-1.538-1.576-3.646-1.758-5.1-1.758h-0.002
	c-7.178,0.001-13.194,4.501-16.43,8.712c-0.35,0.455-0.653,0.94-0.928,1.442c-1.118-0.816-2.485-0.924-3.47-0.924h-0.001
	c-5.762,0.001-10.597,3.62-13.2,7.006c-2.531,3.295-2.435,8.394-2.382,11.133c0.006,0.3,0.011,0.568,0.011,0.794
	c0,0.371-0.058,0.547-0.262,1.101c-0.333,0.903-0.787,2.142-0.692,4.258c0.105,2.483,1.449,4.018,2.338,5.034
	c0.182,0.208,0.424,0.484,0.526,0.636c0.196,1.127,1.051,5.224,3.306,6.94l0.048,0.037c0.021,0.017,0.044,0.034,0.067,0.052
	c0.028,1.156-0.078,3.22-0.191,3.835c-0.108,0.594-0.212,0.706-0.368,0.874c-0.892,0.951-3.168,2.117-5.37,3.241
	c-1.188,0.61-2.417,1.237-3.64,1.93c-0.286,0.16-0.583,0.325-0.885,0.493C5.337,70.541,0,73.505,0,78.92
	c0,2.355,1.498,3.938,3.727,3.938h10.048c-0.001,0.069-0.012,0.133-0.012,0.201c0,3.037,2.012,5.157,4.893,5.157h62.237
	c1.556,0,5.187-0.501,5.301-5.131l0.002-0.069c0.001-0.054-0.002-0.104-0.001-0.158h9.741c1.473,0,3.958-0.507,4.059-3.902
	l0.003-0.068C100.185,71.583,92.228,68.121,88.83,66.641z M80.893,84.176c-1.263,0-60.47,0-62.237,0
	c-0.379,0-0.852-0.02-0.852-1.117c0-4.829,5.881-7.68,10.511-10.29s9.694-4.652,11.932-7.039c0.734-0.783,1.141-1.594,1.383-2.92
	c0.227-1.247,0.385-4.908,0.249-6.329c-0.097-1.006-0.463-1.263-1.557-2.103c-1.094-0.843-2.221-3.61-2.663-6.325
	c-0.348-2.136-3.305-3.253-3.44-6.345c-0.147-3.358,1.178-3.872,1.178-6.397c0-2.525-0.484-8.943,2.136-12.353
	c2.458-3.198,7.323-7.133,13.226-7.134c2.746,0,2.493,1.042,2.493,1.799c0,0.758,0.37,1.452,1.491,1.506
	c1.294,0.063,5.03,0.578,7.6,4.27c2.746,3.946,2.34,8.554,2.305,11.616c-0.031,2.715,1.432,2.357,1.305,6.397
	c-0.116,3.723-2.378,3.419-3.198,6.26c-0.508,1.757-1.11,4.206-2.21,5.65c-0.599,0.787-1.271,1.048-1.516,2.115
	c-0.252,1.104-0.336,4.893-0.252,6.407c0.084,1.516,0.093,2.08,0.853,2.968c3.914,4.577,9.278,5.825,11.079,6.608
	c6.534,2.841,11.585,6.144,11.448,11.49C82.13,83.923,82.155,84.176,80.893,84.176z"/>
</svg>
