<?xml version="1.0" encoding="utf-8"?>
<!-- Generator: Adobe Illustrator 16.0.3, SVG Export Plug-In . SVG Version: 6.00 Build 0)  -->
<!DOCTYPE svg PUBLIC "-//W3C//DTD SVG 1.1//EN" "http://www.w3.org/Graphics/SVG/1.1/DTD/svg11.dtd">
<svg version="1.1" id="Ebene_3" xmlns="http://www.w3.org/2000/svg" xmlns:xlink="http://www.w3.org/1999/xlink" x="0px" y="0px"
	 width="100px" height="100px" viewBox="0 0 100 100" enable-background="new 0 0 100 100" xml:space="preserve">
<path d="M85.5,4H72v11h8.75v74h-61.5V15H28V4H14.5c-3.314,0-6,2.686-6,6v84c0,3.314,2.686,6,6,6h71c3.313,0,6-2.686,6-6V10
	C91.5,6.686,88.813,4,85.5,4z"/>
<path d="M67.5,15.917c0,1.657-1.344,3-3,3h-29c-1.657,0-3-1.343-3-3v-13c0-1.657,1.343-3,3-3h29c1.656,0,3,1.343,3,3V15.917z"/>
<g>
	<polygon points="56.59,39.827 29.425,66.992 29.425,66.992 29.425,74.77 37.203,74.77 37.203,74.77 64.367,47.604 	"/>
	<path d="M61.186,35.231l-0.84,0.84l7.778,7.777l0.839-0.84c2.147-2.146,2.148-5.63,0.001-7.777
		C66.816,33.083,63.333,33.084,61.186,35.231z"/>
</g>
</svg>
